<svg width="20" height="23" viewBox="0 0 20 23" fill="none" xmlns="http://www.w3.org/2000/svg">
<path d="M19.3735 7.84706C17.7349 8.79412 16.7229 10.4176 16.7229 12.2216C16.7229 14.251 18.0241 16.1 20 16.8667C19.6145 18.0392 19.0361 19.1216 18.3133 20.1137C17.253 21.5118 16.1446 22.9549 14.506 22.9549C12.8675 22.9549 12.3855 22.0529 10.4578 22.0529C8.57831 22.0529 7.90361 23 6.36145 23C4.81928 23 3.75904 21.6922 2.55422 20.0686C0.963856 17.8137 0.0481928 15.198 0 12.4471C0 7.98235 3.08434 5.59216 6.16867 5.59216C7.80723 5.59216 9.15663 6.58431 10.1687 6.58431C11.1325 6.58431 12.6747 5.54706 14.506 5.54706C16.4337 5.50196 18.2651 6.35882 19.3735 7.84706ZM13.6386 3.65294C14.4578 2.75098 14.8916 1.62353 14.9398 0.45098C14.9398 0.315686 14.9398 0.135294 14.8916 0C13.494 0.135294 12.1928 0.766667 11.2771 1.75882C10.4578 2.61569 9.9759 3.69804 9.92771 4.87059C9.92771 5.00588 9.92771 5.14118 9.9759 5.27647C10.0723 5.27647 10.2169 5.32157 10.3133 5.32157C11.6145 5.23137 12.8193 4.6 13.6386 3.65294Z" fill="white"/>
</svg>
